<svg id="service-box" xmlns="http://www.w3.org/2000/svg" xmlns:xlink="http://www.w3.org/1999/xlink" viewBox="0 0 188.9 83.4">
    <defs>
        <style>
                 #service-box{
                    overflow: overlay;
                } 
                #service-box .cls-1{fill:url(#linear-gradient-circle);}
                #service-box .cls-2{fill:#faad1b;}
                #service-box .cls-3{fill:#363795;}
                #service-box .cls-4{fill:url(#linear-gradient-2);}
                #service-box .cls-5{fill:url(#linear-gradient-3);}
                #service-box .cls-6{fill:url(#linear-gradient-4);}
                #service-box .cls-7{fill:url(#linear-gradient-5);}
                #service-box .cls-8{fill:url(#linear-gradient-6)}
                #service-box .cls-9{fill:url(#linear-gradient-7-before)}
                #service-box .cls-10{fill:url(#linear-gradient-8)}
                #service-box .cls-11{fill:url(#linear-gradient-9)}
                #service-box:hover .box-1, #service-box:hover .box-2{
                    transform-origin: 72% 50%;
                    background: -webkit-linear-gradient(left, #2f4ea2, #09d5ed);
                    animation: progress 0.5s infinite;
                }
                #service-box:hover .box-3, #service-box:hover .box-4{
                    transform-origin: 72% 50%;
                    background: -webkit-linear-gradient(left, #2f4ea2, #09d5ed);
                    animation: progress 0.5s infinite;
                }
                #service-box:hover .cls-8,  #service-box:hover .cls-9,  #service-box:hover .cls-10, #service-box:hover .cls-11{
                    transform-origin: 72% 50%;
                    background: -webkit-linear-gradient(left, #2f4ea2, #09d5ed);
                    animation: spins 0.5s infinite;
                }
                #service-box:hover .cls-1{
                    fill:url(#linear-gradient);
                }
                @keyframes progress {
                    0% {
                        transform: scaleX(0.9)
                    }
                    100%{
                        transform: scaleX(1)
                    }
                }
                @keyframes spins {
                    0% {
                        transform: scaleY(1)
                    
                    }
                    100%{
                        transform: scaleY(0.7)
                
                    }
                }
        </style>
        <linearGradient id="linear-gradient" x1="94.41" y1="61.99" x2="94.41" y2="31.58" gradientUnits="userSpaceOnUse">
            <stop offset="0" stop-color="#363795"/>
            <stop offset="1" stop-color="#00f6ff"/>
        </linearGradient>
        <linearGradient id="linear-gradient-circle" x1="94.41" y1="61.99" x2="94.41" y2="31.58" gradientUnits="userSpaceOnUse">
            <stop offset="0" stop-color="#363794"/>
            <stop offset="1" stop-color="#363794"/>
        </linearGradient>
        <linearGradient id="linear-gradient-2" x1="36.65" y1="27.49" x2="36.65" y2="3.25" xlink:href="#linear-gradient"/>
        <linearGradient id="linear-gradient-3" x1="145.9" y1="27.49" x2="145.9" y2="3.25" xlink:href="#linear-gradient"/>
        <linearGradient id="linear-gradient-4" x1="24.69" y1="80.12" x2="24.69" y2="55.88" xlink:href="#linear-gradient"/>
        <linearGradient id="linear-gradient-5" x1="164.24" y1="80.12" x2="164.24" y2="55.88" xlink:href="#linear-gradient"/>
        <linearGradient id="linear-gradient-6" x1="140.72" y1="27.69" x2="148.62" y2="13.19" gradientTransform="matrix(0.88, -0.48, 0.48, 0.88, -10.09, 87.1)" xlink:href="#linear-gradient"/>
        <linearGradient id="linear-gradient-7" x1="104.71" y1="8.07" x2="112.61" y2="-6.43" gradientTransform="matrix(-0.88, -0.48, -0.48, 0.88, 157.95, 87.1)" xlink:href="#linear-gradient"/>
         <linearGradient id="linear-gradient-7-before" x1="104.71" y1="8.07" x2="112.61" y2="-6.43" gradientTransform="matrix(-0.88, -0.48, -0.48, 0.88, 157.95, 87.1)" xlink:href="#linear-gradient"/>
        <linearGradient id="linear-gradient-8" x1="131.12" y1="108" x2="139.02" y2="93.5" gradientTransform="matrix(-0.88, 0.48, -0.48, -0.88, 228.95, 87.6)" xlink:href="#linear-gradient"/>
        <linearGradient id="linear-gradient-9" x1="42.44" y1="59.69" x2="50.34" y2="45.19" gradientTransform="matrix(0.88, 0.48, 0.48, -0.88, 60.91, 87.6)" xlink:href="#linear-gradient"/>
    </defs>
    <title>Asset 3</title>
        <g id="Layer_2" data-name="Layer 2">
            <g id="Layer_1-2" data-name="Layer 1">
                
                <g class="box-1">
                    <rect class="cls-2" x="15.2" y="3.3" width="42.9" height="24.23" rx="5.6"/>
                    <rect class="cls-3" x="21.3" y="-9.3" width="30.7" height="49.39" rx="11.2" transform="translate(52 -21.3) rotate(90)"/>
                     <rect class="cls-4" x="15.2" y="3.3" width="42.9" height="24.23" rx="5.6"/>
                </g>
                <g class="box-2">
                    <rect class="cls-2" x="124.5" y="3.3" width="42.9" height="24.23" rx="5.6"/>
                    <rect class="cls-3" x="130.5" y="-9.3" width="30.7" height="49.39" rx="11.2" transform="translate(161.3 -130.5) rotate(90)"/>
                    <rect class="cls-5" x="124.5" y="3.3" width="42.9" height="24.23" rx="5.6"/>
                 </g>
                <g  class="box-3">
                    <rect class="cls-2" x="3.3" y="55.9" width="42.9" height="24.23" rx="5.6"/>
                    <rect class="cls-3" x="9.3" y="43.3" width="30.7" height="49.39" rx="11.2" transform="translate(92.7 43.3) rotate(90)"/>
                    <rect class="cls-6" x="3.3" y="55.9" width="42.9" height="24.23" rx="5.6"/>
                </g>
                <g  class="box-4">
                    <rect class="cls-2" x="142.8" y="55.9" width="42.9" height="24.23" rx="5.6"/>
                    <rect class="cls-3" x="148.9" y="43.3" width="30.7" height="49.39" rx="11.2" transform="translate(232.2 -96.2) rotate(90)"/>
                    <rect class="cls-7" x="142.8" y="55.9" width="42.9" height="24.23" rx="5.6"/>
                </g>
                <g>
                     <g id="circle">
                        <circle class="cls-1" cx="94.4" cy="46.8" r="15.2"/>
                    </g>
                    <g id="line1">
                        <path class="cls-8" d="M140.2,27.7,112.5,42.6a.8.8,0,0,0-.3,1.1h0a.8.8,0,0,0,1.1.3l27.6-14.9a.8.8,0,0,0,.4-1.1h0A.8.8,0,0,0,140.2,27.7Z"/>
                    </g>
                </g>
               
                
                <path class="cls-9" d="M48.7,27.7,76.4,42.6a.9.9,0,0,1,.3,1.1h0a.8.8,0,0,1-1.1.3L47.9,29.1a.8.8,0,0,1-.3-1.1h0A.8.8,0,0,1,48.7,27.7Z"  width="80" height="60"/>
                <path class="cls-10" d="M48.7,71.9,76.4,57a.9.9,0,0,0,.3-1.1h0a.8.8,0,0,0-1.1-.3L47.9,70.5a.8.8,0,0,0-.3,1.1h0A.8.8,0,0,0,48.7,71.9Z"/>
                <path class="cls-11" d="M140.2,71.9,112.5,57a.8.8,0,0,1-.3-1.1h0a.8.8,0,0,1,1.1-.3l27.6,14.9a.8.8,0,0,1,.4,1.1h0A.8.8,0,0,1,140.2,71.9Z"/>
            </g>
        </g>
</svg>